<?xml version="1.0" standalone="no"?><!DOCTYPE svg PUBLIC "-//W3C//DTD SVG 1.1//EN" "http://www.w3.org/Graphics/SVG/1.1/DTD/svg11.dtd"><svg t="1570849458462" class="icon" viewBox="0 0 1024 1024" version="1.1" xmlns="http://www.w3.org/2000/svg" p-id="11010" xmlns:xlink="http://www.w3.org/1999/xlink" width="200" height="200"><defs><style type="text/css"></style></defs><path d="M788.666182 851.316364c5.259636-43.054545 3.490909-86.760727-0.837818-128 21.317818-9.216 34.816-24.064 39.703272-45.102546 31.837091 0.558545 62.557091-1.489455 95.232-11.869091-27.368727 75.682909-72.610909 132.468364-130.327272 181.853091l-3.770182 3.118546z m-364.450909 88.762181c86.528-102.4 198.376727-182.272 271.732363-227.746909 10.426182 8.936727 25.227636 17.128727 39.144728 20.014546 5.12 50.176 1.489455 101.282909-4.049455 158.347636-71.214545 40.354909-137.774545 58.833455-219.089454 58.833455-32.814545 0-53.527273-1.489455-84.340364-8.378182l-3.351273-1.070546z m-271.965091-177.384727a648.192 648.192 0 0 1 81.221818-229.934545c5.957818 1.396364 16.616727 3.118545 22.946909 3.118545 13.218909 0 25.925818-1.629091 36.817455-9.169454 90.391273 66.792727 210.618182 120.32 366.731636 139.496727-95.557818 46.126545-214.016 133.818182-299.659636 255.674182-86.481455-31.976727-150.155636-79.592727-203.869091-154.344728l-4.189091-4.840727z m-40.96-431.336727c13.172364 26.856727 31.650909 57.995636 64.698182 85.643636a106.123636 106.123636 0 0 0-6.190546 33.605818c0 19.037091 4.747636 39.424 17.687273 52.596364-43.287273 62.510545-66.094545 132.794182-76.101818 187.950546-26.298182-54.225455-38.586182-118.039273-38.586182-180.922182 0-62.836364 13.498182-122.600727 37.515636-176.733091-0.139636 0.139636-1.629091 2.420364 0.930909-2.141091z m213.550545-217.646546c27.927273 14.987636 67.165091 38.725818 111.150546 73.029819a77.265455 77.265455 0 0 0-4.608 52.503272 792.389818 792.389818 0 0 0-146.897455 130.792728c-8.378182-2.932364-21.876364-6.050909-31.325091-6.050909-14.941091 0-30.487273 4.049455-42.496 11.077818-27.787636-26.996364-55.389091-71.912727-69.073454-99.421091 44.404364-71.214545 106.868364-125.765818 183.249454-161.931637z m372.363637-0.930909c-46.312727 14.196364-89.460364 30.347636-128.977455 48.593455a81.92 81.92 0 0 0-57.344-23.505455c-13.358545 0-22.807273 2.187636-33.978182 7.819637a868.445091 868.445091 0 0 0-81.640727-58.274909 406.481455 406.481455 0 0 1 116.689455-16.058182c66.373818 0 128.930909 15.127273 185.250909 41.425454zM331.543273 403.921455c37.376-42.356364 79.080727-79.034182 132.933818-116.829091 13.730909 10.379636 27.927273 14.848 46.545454 14.848 13.358545 0 23.179636-2.327273 34.397091-7.959273 62.603636 71.773091 126.138182 162.955636 161.186909 282.065454a58.647273 58.647273 0 0 0-32.768 35.514182c-145.547636-16.756364-254.836364-69.632-339.688727-130.746182 5.259636-9.821091 6.702545-18.338909 6.702546-30.208 0-15.778909-3.723636-29.928727-11.450182-42.496l2.141091-4.18909z m619.799272 106.449454c0 31.837091-0.651636 62.184727-9.30909 90.530909-33.838545 10.798545-73.541818 20.247273-113.710546 20.247273-8.750545-29.975273-36.584727-54.504727-65.442909-55.063273-25.367273-129.489455-102.912-240.826182-176.034909-315.112727a72.145455 72.145455 0 0 0 6.190545-31.045818c0-3.258182-0.558545-6.237091-0.930909-9.309091a979.456 979.456 0 0 1 171.054546-60.043637c113.570909 79.453091 188.183273 210.990545 188.183272 359.796364zM512.093091 0.698182C229.934545 0.651636 0.465455 229.469091 0.465455 510.603636c0 281.134545 229.469091 509.998545 511.627636 509.998546 282.065455 0 511.581091-228.817455 511.581091-509.998546 0-281.134545-229.469091-509.998545-511.581091-509.998545z" fill="#000000" p-id="11011"></path></svg>