<?xml version="1.0" standalone="no"?><!DOCTYPE svg PUBLIC "-//W3C//DTD SVG 1.1//EN" "http://www.w3.org/Graphics/SVG/1.1/DTD/svg11.dtd"><svg t="1566976806312" class="icon" viewBox="0 0 1024 1024" version="1.1" xmlns="http://www.w3.org/2000/svg" p-id="17909" xmlns:xlink="http://www.w3.org/1999/xlink" width="200" height="200"><defs><style type="text/css"></style></defs><path d="M137.747674 1023.998907 137.747674 0.001093 604.773793 0.001093 604.773793 279.669917 886.252326 279.669917 886.252326 1023.998907 137.747674 1023.998907ZM835.508359 418.991251 188.491641 418.991251 188.491641 973.604643 835.508359 973.604643 835.508359 418.991251ZM262.639423 589.986856C275.71719 570.604615 298.529791 561.19107 331.076132 561.74513 359.536423 562.001942 379.896737 568.942437 392.194232 582.565521 404.455663 596.188605 410.437755 614.833194 410.140508 638.608568L410.140508 653.9288 348.575446 653.9288 348.575446 640.305716C348.613695 626.756944 347.237835 617.343399 344.451146 612.100053 341.66555 606.820643 337.206848 604.310437 331.076132 604.569436 324.64817 604.384749 319.892221 606.711361 316.808285 611.584242 313.689379 616.457123 311.68187 624.948328 310.754067 637.129984 309.824077 649.276669 309.378207 666.221923 309.490768 687.929684 309.378207 709.638537 309.824077 726.584885 310.754067 738.76654 311.68187 750.913225 313.689379 759.441586 316.808285 764.314467 319.892221 769.150192 324.64817 771.512867 331.076132 771.329274 338.767394 771.697554 343.932057 767.526263 346.570123 758.77606 349.244251 750.026949 350.471487 734.336251 350.285708 711.742214L411.887926 711.742214 411.887926 729.795587C411.626742 752.278157 407.651066 769.62994 399.959805 781.888093 392.306792 794.180123 382.349023 802.672421 370.125841 807.398864 357.938721 812.124214 344.89811 814.375422 331.076132 814.15358 307.483259 814.263954 289.31514 810.055508 276.646087 801.527147 263.975941 793.037034 255.244316 779.487169 250.525522 760.880829 245.769573 742.310553 243.542408 717.982212 243.800313 687.929684 243.281224 642.041113 249.596626 609.406253 262.639423 589.986856ZM489.093417 743.085362C489.203792 753.350212 491.136989 760.622924 494.926886 764.977809 498.71569 769.334879 503.73173 771.438556 510.011069 771.329274 516.549406 771.179557 521.602602 768.92835 525.168471 764.572373 528.735433 760.179239 530.520007 754.604769 530.594319 747.84896 530.036981 736.330646 524.836254 727.875504 514.951705 722.486813 505.069341 717.095935 493.589275 711.927993 480.584727 706.980801 467.543022 702.069671 456.100112 694.539054 446.217748 684.385671 436.297136 674.233381 431.095316 658.618087 430.575135 637.574761 430.575135 612.986329 437.187783 594.232459 450.490672 581.274902 463.753125 568.353407 483.817286 561.818349 510.678782 561.74513 538.247331 561.597599 558.348648 567.578599 571.017701 579.612724 583.687846 591.68619 589.928937 610.661903 589.780313 636.540954L530.223853 636.540954 530.223853 630.780704C530.259916 623.433681 528.773682 617.27018 525.764058 612.285832 522.79159 607.338639 518.22142 604.755215 512.054641 604.569436 505.217964 604.790185 500.200831 606.968174 496.969365 611.177713 493.737898 615.423316 492.139104 620.334445 492.177353 626.019291 492.73469 637.536512 498.158352 645.991654 508.44943 651.45575 518.742694 656.918754 530.66863 662.236412 544.230517 667.330042 557.79131 672.497984 569.717246 680.324755 580.01051 690.883574 590.301588 701.442393 595.72525 717.612839 596.282588 739.320599 596.172213 765.05212 588.778198 783.99177 574.027325 796.138455 559.277544 808.246892 537.83971 814.263954 509.676666 814.15358 483.185636 814.448641 462.899634 809.35501 448.818658 798.832254 434.735497 788.346654 427.639822 770.663747 427.492292 745.781347L427.492292 737.290141 489.093417 737.290141 489.093417 743.085362ZM673.154768 743.085362C673.266236 753.350212 675.199433 760.622924 678.988237 764.977809 682.778134 769.334879 687.794174 771.438556 694.073513 771.329274 700.611851 771.179557 705.702203 768.92835 709.230916 764.572373 712.797878 760.179239 714.582451 754.604769 714.618514 747.84896 714.099425 736.330646 708.896513 727.875504 699.014149 722.486813 689.131785 717.095935 677.651719 711.927993 664.647171 706.980801 651.642623 702.069671 640.162557 694.539054 630.278007 684.385671 620.395643 674.233381 615.194917 658.618087 614.637579 637.574761 614.637579 612.986329 621.250228 594.232459 634.55093 581.274902 647.81557 568.353407 667.916886 561.818349 694.741226 561.74513 722.309776 561.597599 742.411092 567.578599 755.080145 579.612724 767.749198 591.68619 773.991381 610.661903 773.842758 636.540954L714.285204 636.540954 714.285204 630.780704C714.321267 623.433681 712.836126 617.27018 709.826502 612.285832 706.852941 607.338639 702.283864 604.755215 696.117085 604.569436 689.317564 604.790185 684.263276 606.968174 681.031809 611.177713 677.835313 615.423316 676.201548 620.334445 676.239797 626.019291 676.794949 637.536512 682.220796 645.991654 692.511875 651.45575 702.802953 656.918754 714.731075 662.236412 728.291868 667.330042 741.853754 672.497984 753.77969 680.324755 764.070769 690.883574 774.364033 701.442393 779.787694 717.612839 780.345032 739.320599 780.232472 765.05212 772.840643 783.99177 758.089769 796.138455 743.376051 808.246892 721.901061 814.263954 693.739111 814.15358 667.248081 814.448641 646.962078 809.35501 632.881103 798.832254 618.797942 788.346654 611.702267 770.663747 611.553643 745.781347L611.553643 737.290141 673.154768 737.290141 673.154768 743.085362ZM637.338712 0.001093 886.252326 247.265643 637.338712 247.265643 637.338712 0.001093Z" p-id="17910" fill="#000000"></path></svg>