<?xml version="1.0" standalone="no"?><!DOCTYPE svg PUBLIC "-//W3C//DTD SVG 1.1//EN" "http://www.w3.org/Graphics/SVG/1.1/DTD/svg11.dtd"><svg t="1564379866831" class="icon" viewBox="0 0 1024 1024" version="1.1" xmlns="http://www.w3.org/2000/svg" p-id="17716" xmlns:xlink="http://www.w3.org/1999/xlink" width="200" height="200"><defs><style type="text/css"></style></defs><path d="M1009.838422 472.960861l-181.087717-180.863717 0.152-140.95978c0.032-27.167958-22.527965-49.415923-50.127922-49.447923-27.599957-0.032-50.207922 22.175965-50.239921 49.343923l-0.048 40.927936L550.807139 14.481577C540.423156 4.105594 526.439177-0.582399 512.655199 0.0576c-13.775978-0.639999-27.759957 4.047994-38.15194 14.423977L15.471976 472.960861a48.991923 48.991923 0 0 0 0.519999 69.855891c19.663969 19.07197 51.599919 18.839971 70.975889-0.511999l425.687335-425.175336 425.687335 425.175336c19.37597 19.35197 51.31192 19.583969 70.975889 0.511999a48.983923 48.983923 0 0 0 0.519999-69.855891z" p-id="17717"></path><path d="M512.655199 196.833292L88.471862 611.568644V1024h498.503221V624.784624h197.99969V1024h151.863763V611.568644L512.655199 196.833292z m-82.423871 622.823027h-197.999691V624.784624h197.999691v194.871695z" p-id="17718"></path></svg>