<?xml version="1.0" standalone="no"?><!DOCTYPE svg PUBLIC "-//W3C//DTD SVG 1.1//EN" "http://www.w3.org/Graphics/SVG/1.1/DTD/svg11.dtd"><svg t="1574318642364" class="icon" viewBox="0 0 1024 1024" version="1.1" xmlns="http://www.w3.org/2000/svg" p-id="4713" xmlns:xlink="http://www.w3.org/1999/xlink" width="200" height="200"><defs><style type="text/css"></style></defs><path d="M72.084 101.755a5.125 5.125 0 0 1 5.12-5.12H109.6a5.1 5.1 0 0 1 5.12 5.12v790.687H976.46a5.105 5.105 0 0 1 5.12 5.12v32.389a5.105 5.105 0 0 1-5.12 5.12H72.084V101.755z" p-id="4714" fill="#000000"></path><path d="M192.348 303.242c0-3.036 1.157-6.077 3.477-8.391a11.817 11.817 0 0 1 8.391-3.477h108.002c3.036 0 6.072 1.157 8.386 3.477a11.819 11.819 0 0 1 3.477 8.391v558.966H192.348V303.242z m586 164.66c0-3.037 1.162-6.078 3.481-8.392a11.812 11.812 0 0 1 8.392-3.477h108.001a11.827 11.827 0 0 1 8.392 3.477 11.835 11.835 0 0 1 3.471 8.391v394.302H778.353V467.9zM390.768 617.85a12.646 12.646 0 0 1 12.657-12.662h115.2a12.595 12.595 0 0 1 8.945 3.712 12.607 12.607 0 0 1 3.712 8.95V862.8H390.769v-244.95zM579.21 733.076c0-6.128 1.234-12.262 3.707-16.936 2.473-4.675 5.714-7.02 8.95-7.02h115.2c3.24 0 6.477 2.345 8.945 7.02 2.472 4.674 3.712 10.803 3.712 16.936V864.22H579.215V733.076z" p-id="4715" fill="#000000"></path></svg>