<?xml version="1.0" standalone="no"?><!DOCTYPE svg PUBLIC "-//W3C//DTD SVG 1.1//EN" "http://www.w3.org/Graphics/SVG/1.1/DTD/svg11.dtd"><svg t="1572338837051" class="icon" viewBox="0 0 1070 1024" version="1.1" xmlns="http://www.w3.org/2000/svg" p-id="9523" xmlns:xlink="http://www.w3.org/1999/xlink" width="208.984375" height="200"><defs><style type="text/css"></style></defs><path d="M199.69849066 627.02270333h152.205456c14.459049 0 29.546221-1.211379 43.956326 0.448659l-7.590491-1.01968c2.753133 0.387478 5.441008 0.940144 8.122763 1.670235 1.317425 0.358927 2.60426 0.813704 3.891095 1.27052 5.065766 1.792596-6.682977-3.034565-1.835422-0.76272 2.437033 1.14408 4.741508 2.547158 6.984802 4.027732 1.755887 1.158355 5.636786 4.492706-1.49281-1.254205 1.388803 1.119608 2.679717 2.35138 3.954315 3.597428 0.956459 0.934026 1.845619 1.933312 2.73274 2.932597 3.515853 3.956355-4.280613-5.852958-1.154277-1.572345 1.586621 2.169877 2.932597 4.504942 4.188842 6.876715 0.987049 1.863973 2.899967 6.738039-0.642398-1.898642 0.515958 1.260323 0.940144 2.557355 1.362291 3.850308 1.001325 3.067195 1.613132 6.246554 2.061791 9.434071l-1.019679-7.590491c0.768838 6.674819 0.448659 13.520945 0.448659 20.230433v175.933388c0 15.564381 12.986633 28.551014 28.551014 28.551014s28.551014-12.986633 28.551014-28.551014V659.79518833c0-16.006922-2.781685-30.894237-10.00713-45.377758-13.555614-27.176487-44.219403-44.496755-74.171456-44.496755H199.70052966c-15.564381 0-28.551014 12.986633-28.551014 28.551014S184.13410966 627.02270333 199.69849066 627.02270333z" p-id="9524" fill="#000000"></path><path d="M387.73546966 614.77635733l-73.327162 73.327162-138.953707 138.955746-83.048781 83.050821-0.589375 0.589374c-11.000298 11.000298-11.000298 29.376954 0 40.377252s29.376954 11.000298 40.377252 0l73.327162-73.327161 138.953706-138.955746 83.048782-83.050821 0.589375-0.589375c11.000298-11.000298 11.000298-29.376954 0-40.377252-11.000298-10.998258-29.376954-10.998258-40.377252 0zM864.95343366 394.11372733h-152.205456c-14.461089 0-29.546221 1.211379-43.958365-0.448659l7.590491 1.019679a65.565364 65.565364 0 0 1-8.122764-1.670234 54.479414 54.479414 0 0 1-3.891095-1.27052c-5.063726-1.792596 6.685016 3.034565 1.835422 0.76068-2.437033-1.142041-4.739468-2.547158-6.984801-4.025693-1.753848-1.158355-5.634747-4.494745 1.49281 1.254206-1.388803-1.119608-2.677677-2.35138-3.952276-3.597428-0.958498-0.934026-1.845619-1.935351-2.73274-2.932597-3.515853-3.958394 4.280613 5.850919 1.154276 1.572345-1.584581-2.169877-2.932597-4.504942-4.188841-6.878755-0.987049-1.863973-2.899967-6.738039 0.642398 1.898642a54.573224 54.573224 0 0 1-1.362292-3.850308c-1.001325-3.067195-1.613132-6.246554-2.06383-9.434071l1.019679 7.590491c-0.768838-6.676859-0.448659-13.518905-0.448659-20.228393V177.93972433c0-15.564381-12.986633-28.551014-28.551014-28.551014s-28.551014 12.986633-28.551014 28.551014v183.399478c0 16.006922 2.781685 30.894237 10.005091 45.379798 13.553574 27.174447 44.219403 44.494716 74.171456 44.494716h189.095406c15.564381 0 28.551014-12.986633 28.551014-28.551014s-12.980515-28.548975-28.544896-28.548975z" p-id="9525" fill="#000000"></path><path d="M676.91237566 406.36007333l73.529058-73.529058 138.998573-139.000612 82.092323-82.094363 0.454777-0.452737c11.000298-11.000298 11.000298-29.376954 0-40.377252s-29.376954-11.000298-40.377252 0l-73.529058 73.529058-138.998573 139.000612-82.092323 82.094362a95.401174 95.401174 0 0 1-0.454777 0.452738c-11.000298 11.000298-11.000298 29.376954 0 40.377252s29.376954 11.000298 40.377252 0z" p-id="9526" fill="#000000"></path><path d="M864.10506066 569.92067533h-183.401518c-16.004883 0-30.894237 2.781685-45.377758 10.005091-27.174447 13.553574-44.494716 44.219403-44.494716 74.171456v189.095405c0 15.564381 12.986633 28.551014 28.551014 28.551014s28.551014-12.986633 28.551014-28.551014v-152.205456c0-14.461089-1.211379-29.546221 0.448659-43.958365l-1.019679 7.590491c0.387478-2.753133 0.940144-5.441008 1.670234-8.122763 0.358927-1.317425 0.813704-2.60426 1.27052-3.891096 1.792596-5.063726-3.034565 6.685016-0.76272 1.835423 1.14408-2.437033 2.547158-4.739468 4.027733-6.984802 1.158355-1.755887 4.492706-5.636786-1.254206 1.49281 1.119608-1.388803 2.35138-2.677677 3.597428-3.952276 0.934026-0.958498 1.933312-1.845619 2.932597-2.73274 3.956355-3.515853-5.852958 4.280613-1.572345 1.154277 2.169877-1.584581 4.504942-2.932597 6.876716-4.188842 1.863973-0.987049 6.738039-2.899967-1.898643 0.642398a54.573224 54.573224 0 0 1 3.850308-1.362291c3.067195-1.001325 6.246554-1.613132 9.434071-2.063831l-7.590491 1.019679c6.674819-0.768838 13.520945-0.448659 20.230433-0.448658h175.933388c15.564381 0 28.551014-12.986633 28.551014-28.551014S879.66944166 569.92067533 864.10506066 569.92067533z" p-id="9527" fill="#000000"></path><path d="M635.69082966 655.15360933l73.325122 73.327162 138.955746 138.957785 83.048782 83.050821 0.589375 0.587335c11.000298 11.000298 29.376954 11.000298 40.377252 0s11.000298-29.376954 0-40.377252l-73.325123-73.327161-138.955746-138.957786-83.048781-83.050821-0.589375-0.587335c-11.000298-11.000298-29.376954-11.000298-40.377252 0s-10.998258 29.376954 0 40.377252zM198.85011766 451.21575533h183.399478c16.006922 0 30.896276-2.781685 45.379798-10.00713 27.174447-13.553574 44.494716-44.217363 44.494716-74.171456V177.94176333c0-15.564381-12.986633-28.551014-28.551014-28.551014s-28.551014 12.986633-28.551014 28.551014v152.205456c0 14.459049 1.211379 29.546221-0.448659 43.956326l1.019679-7.590491a65.565364 65.565364 0 0 1-1.670234 8.122763 54.479414 54.479414 0 0 1-1.27052 3.891096c-1.792596 5.065766 3.034565-6.682977 0.76068-1.835423-1.142041 2.437033-2.547158 4.741508-4.025693 6.984802-1.158355 1.755887-4.494745 5.634747 1.254205-1.49281-1.119608 1.388803-2.35138 2.679717-3.597427 3.954315-0.934026 0.956459-1.935351 1.845619-2.932597 2.73274-3.958394 3.515853 5.850919-4.280613 1.572345-1.154277-2.169877 1.586621-4.504942 2.932597-6.878755 4.188842-1.863973 0.987049-6.738039 2.899967 1.898642-0.642398-1.260323 0.515958-2.555316 0.940144-3.850308 1.362291-3.067195 1.001325-6.246554 1.613132-9.434071 2.061791l7.590491-1.019679c-6.676859 0.768838-13.518905 0.448659-20.228393 0.448659H198.84807866c-15.564381 0-28.551014 12.986633-28.551014 28.551014s12.988672 28.548975 28.553053 28.548975z" p-id="9528" fill="#000000"></path><path d="M427.26842666 365.98282133l-73.527018-73.529058-138.998573-139.000612L132.64847366 71.35878833l-0.452738-0.452737c-11.000298-11.000298-29.376954-11.000298-40.377252 0s-11.000298 29.376954 0 40.377252l73.527019 73.529058 138.998573 139.000612 82.094362 82.094362 0.452737 0.452738c11.000298 11.000298 29.376954 11.000298 40.377252 0s10.998258-29.376954 0-40.377252z" p-id="9529" fill="#000000"></path></svg>