<?xml version="1.0" standalone="no"?><!DOCTYPE svg PUBLIC "-//W3C//DTD SVG 1.1//EN" "http://www.w3.org/Graphics/SVG/1.1/DTD/svg11.dtd"><svg t="1574318795231" class="icon" viewBox="0 0 1080 1024" version="1.1" xmlns="http://www.w3.org/2000/svg" p-id="6408" xmlns:xlink="http://www.w3.org/1999/xlink" width="210.9375" height="200"><defs><style type="text/css"></style></defs><path d="M820.237599 691.103792l153.36435-0.682631c22.640583 0.568859 43.688361-16.326249 47.101514-45.110508v-31.173466c-0.568859-24.460931-19.284316-44.655421-41.924899-45.22428l-292.848544 1.877235c-0.455087-0.056886-0.739517-0.227544-1.137717-0.227544l-20.47892-0.511973a37.430913 37.430913 0 0 0-28.784258 12.401123c-7.338279 7.907138-10.068802 18.886114-9.784373 31.173466l2.275436 22.185496c0 0.398201-1.592805 0.682631-1.592805 1.137718l1.137718 316.911274c0.511973 24.460931 19.284316 39.080604 41.981784 39.592577h30.490835c22.754355 0.568859 40.730295-20.706463 40.218322-45.053622l-1.308375-172.364237 201.944897 213.890934a53.24519 53.24519 0 0 0 79.412698 0 64.110394 64.110394 0 0 0 0-85.613259l-200.067663-213.208303zM407.075404 372.201512c0-0.568859 1.479033-0.853288 1.479033-1.25149l-1.137717-312.019088c-0.568859-24.404045-19.341201-39.023718-42.038671-39.535691h-28.841144c-22.583697-0.568859-40.673409 20.706463-40.10455 45.110508l1.251489 168.609768L95.795833 17.802438a53.188304 53.188304 0 0 0-79.355812 0 63.996622 63.996622 0 0 0 0 85.670145L218.328033 318.615006l-153.193693 0.682631c-22.640583-0.568859-43.631475 14.449015-47.101514 43.233274v31.173466c0.568859 24.460931 19.341201 44.712307 41.981784 45.338051l289.03719-1.93412c0.511973 0 0.739517 0.227544 1.137718 0.227544l20.535805 0.568859c11.377177 0.227544 21.559751-4.550871 28.784258-12.514895 7.395165-7.736481 10.011916-18.772343 9.841259-31.059695l-2.275436-22.128609z m613.229858-354.399074h-0.056886a53.24519 53.24519 0 0 0-79.412698 0l-201.888011 213.890934 1.308375-169.576828c0.455087-24.460931-17.520853-45.793139-40.161436-45.22428h-30.490835c-22.754355 0.625745-41.526697 15.188532-41.981784 39.649463l-1.194604 314.294523c0 0.455087 1.535919 0.739517 1.535919 1.25149L625.744752 394.159464c-0.227544 12.344237 2.389207 23.323213 9.784373 31.11658 7.224508 7.964024 17.463967 12.742439 28.727373 12.458009l20.478919-0.568859c0.455087 0 0.739517-0.170658 1.194603-0.170658l292.791659 1.877235c22.697469-0.568859 41.469811-20.820234 41.981784-45.281166V362.417139c-3.413153-28.841144-24.460931-43.859019-47.044628-43.347045l-155.127813-0.568859 201.717354-215.085537a63.996622 63.996622 0 0 0 0-85.670146zM399.39581 582.451748a37.317142 37.317142 0 0 0-28.784259-12.401123l-20.478919 0.511973c-0.455087 0-0.739517 0.170658-1.194604 0.227544L55.748169 568.912907c-22.754355 0.568859-41.412925 20.763349-41.981784 45.281166l-0.056886 31.11658c3.413153 28.89803 24.517817 45.736253 47.101514 45.167394l155.639785 0.682631L16.496907 904.425866A63.712193 63.712193 0 0 0 16.440021 989.868468a53.188304 53.188304 0 0 0 79.355812 0l201.944897-215.256195-1.308375 173.672612c-0.568859 24.404045 17.520853 45.736253 40.10455 45.167394h28.841144c22.697469-0.568859 41.412925-15.188532 41.981785-39.592577l1.137718-316.96816c0-0.511973-1.479033-0.796402-1.479034-1.25149l2.21855-22.185495c0.227544-12.230466-2.389207-23.209442-9.784372-31.059695z" p-id="6409" fill="#000000"></path></svg>