<?xml version="1.0" standalone="no"?><!DOCTYPE svg PUBLIC "-//W3C//DTD SVG 1.1//EN" "http://www.w3.org/Graphics/SVG/1.1/DTD/svg11.dtd"><svg t="1567069691867" class="icon" viewBox="0 0 1024 1024" version="1.1" xmlns="http://www.w3.org/2000/svg" p-id="27031" xmlns:xlink="http://www.w3.org/1999/xlink" width="200" height="200"><defs><style type="text/css"></style></defs><path d="M61.6 565.6H120V632h64v-66.4h58.4v188.8H184v-76.8h-64v76.8H61.6V565.6zM268 565.6h177.6v46.4h-59.2v142.4H328V612h-59.2v-46.4zM471.2 565.6h76.8L577.6 680l29.6-115.2h76.8v188.8h-48v-144l-36.8 144h-43.2l-36.8-144v144h-48V565.6zM720.8 565.6h58.4v142.4h91.2v46.4H720.8V565.6z" p-id="27032" fill="#000000"></path><path d="M943.2 288.8l-192-205.6C739.2 71.2 723.2 64 706.4 64H188c-13.6 0-24.8 11.2-24.8 24.8v328.8c0 4.8 4 8 8 8h32.8c4.8 0 8-4 8-8V120c0-3.2 2.4-6.4 6.4-6.4h459.2c2.4 0 5.6 2.4 5.6 4.8v211.2c0 13.6 11.2 24.8 24.8 24.8H904c2.4 0 5.6 2.4 5.6 5.6v544c0 3.2-2.4 6.4-6.4 6.4H172c-4.8 0-8 4-8 8.8v32c0 4.8 4 8.8 8 8.8h763.2c13.6 0 24.8-11.2 24.8-24.8V330.4c-0.8-15.2-6.4-30.4-16.8-41.6z" p-id="27033" fill="#000000"></path></svg>