<?xml version="1.0" standalone="no"?><!DOCTYPE svg PUBLIC "-//W3C//DTD SVG 1.1//EN" "http://www.w3.org/Graphics/SVG/1.1/DTD/svg11.dtd"><svg t="1574991245250" class="icon" viewBox="0 0 1024 1024" version="1.1" xmlns="http://www.w3.org/2000/svg" p-id="2528" xmlns:xlink="http://www.w3.org/1999/xlink" width="200" height="200"><defs><style type="text/css"></style></defs><path d="M960.077576 448.077576V287.961212L671.961212 0H95.728485a31.030303 31.030303 0 0 0-31.030303 31.030303v417.047273H0v447.922424h64.077576V992.969697a31.030303 31.030303 0 0 0 31.030303 31.030303h833.163636a31.030303 31.030303 0 0 0 31.030303-31.030303v-96.969697H1024V448.077576z m-63.922424 512H128v-64.077576h768zM310.30303 716.8l29.944243-4.033939a64.077576 64.077576 0 0 0 10.705454 39.408484 33.978182 33.978182 0 0 0 26.530909 10.550303 39.408485 39.408485 0 0 0 21.566061-5.740606 29.478788 29.478788 0 0 0 12.567273-15.515151 104.106667 104.106667 0 0 0 3.413333-31.030303V537.134545h33.357576v170.666667a124.121212 124.121212 0 0 1-7.602424 48.717576 54.147879 54.147879 0 0 1-24.203637 26.375757 79.282424 79.282424 0 0 1-38.787879 8.998788 65.473939 65.473939 0 0 1-50.579394-18.928485A77.575758 77.575758 0 0 1 310.30303 716.8z m341.333334-17.532121a50.889697 50.889697 0 0 0-22.652122-15.515152 442.647273 442.647273 0 0 0-44.683636-12.256969 228.693333 228.693333 0 0 1-48.407273-15.515152 67.956364 67.956364 0 0 1-26.841212-23.427879 57.250909 57.250909 0 0 1-8.843636-31.030303 63.767273 63.767273 0 0 1 10.860606-35.529697 66.715152 66.715152 0 0 1 31.030303-25.134545 119.466667 119.466667 0 0 1 46.545454-8.533334 125.672727 125.672727 0 0 1 49.183031 8.998788 70.904242 70.904242 0 0 1 32.736969 26.375758 75.869091 75.869091 0 0 1 12.25697 39.563636l-31.185454 2.947879A51.355152 51.355152 0 0 0 634.414545 574.060606a67.490909 67.490909 0 0 0-43.752727-12.101818 70.128485 70.128485 0 0 0-43.907879 11.015757 33.047273 33.047273 0 0 0-13.808484 26.686061 28.547879 28.547879 0 0 0 10.084848 22.341818 132.189091 132.189091 0 0 0 50.113939 17.842424 332.179394 332.179394 0 0 1 55.544243 15.515152 76.179394 76.179394 0 0 1 32.271515 25.6 62.060606 62.060606 0 0 1 10.395152 35.684848 68.266667 68.266667 0 0 1-11.481213 37.701819 75.713939 75.713939 0 0 1-32.892121 27.616969 114.812121 114.812121 0 0 1-48.407273 9.774546 144.446061 144.446061 0 0 1-57.095757-9.929697 79.90303 79.90303 0 0 1-36.150303-29.944243 84.712727 84.712727 0 0 1-13.808485-45.14909l31.030303-2.792728a69.197576 69.197576 0 0 0 10.395152 31.030303 56.475152 56.475152 0 0 0 25.6 20.169697 95.573333 95.573333 0 0 0 38.477575 7.447273 93.090909 93.090909 0 0 0 33.512728-5.585455 46.545455 46.545455 0 0 0 21.721212-15.515151 35.995152 35.995152 0 0 0 7.136969-21.410909 32.73697 32.73697 0 0 0-7.757575-20.790303z m243.74303-251.345455H128V64.077576h543.961212v223.883636h224.038788z" p-id="2529" fill="#000000"></path></svg>