<?xml version="1.0" standalone="no"?><!DOCTYPE svg PUBLIC "-//W3C//DTD SVG 1.1//EN" "http://www.w3.org/Graphics/SVG/1.1/DTD/svg11.dtd"><svg t="1564385573282" class="icon" viewBox="0 0 1024 1024" version="1.1" xmlns="http://www.w3.org/2000/svg" p-id="10920" xmlns:xlink="http://www.w3.org/1999/xlink" width="200" height="200"><defs><style type="text/css"></style></defs><path d="M56.9 568.9h341.3c31.3 0 57-25.6 57-56.9V56.9c0-31.3-25.7-56.9-57-56.9H56.9C25.6 0 0 25.6 0 56.9V512c0 31.3 25.6 56.9 56.9 56.9m0 455.1h341.3c31.3 0 57-25.6 57-56.8V739.6c0-31.3-25.7-56.9-57-56.9H56.9C25.6 682.7 0 708.3 0 739.6v227.6c0 31.2 25.6 56.8 56.9 56.8m568.9 0h341.4c31.2 0 56.8-25.6 56.8-56.8V512c0-31.2-25.6-56.8-56.8-56.8H625.8c-31.3 0-56.9 25.6-56.9 56.8v455.2c0 31.2 25.6 56.8 56.9 56.8M568.9 56.9v227.6c0 31.2 25.6 56.9 56.9 56.9h341.4c31.2 0 56.8-25.7 56.8-56.9V56.9C1024 25.6 998.4 0 967.1 0H625.8c-31.3 0-56.9 25.6-56.9 56.9" p-id="10921" fill="#1296db"></path></svg>