<?xml version="1.0" standalone="no"?><!DOCTYPE svg PUBLIC "-//W3C//DTD SVG 1.1//EN" "http://www.w3.org/Graphics/SVG/1.1/DTD/svg11.dtd"><svg t="1566806460921" class="icon" viewBox="0 0 1024 1024" version="1.1" xmlns="http://www.w3.org/2000/svg" p-id="8292" xmlns:xlink="http://www.w3.org/1999/xlink" width="200" height="200"><defs><style type="text/css"></style></defs><path d="M721.252174 66.782609c-71.234783 35.617391-120.208696 111.304348-120.208696 200.347826 0 124.66087 97.947826 222.608696 222.608696 222.608695 13.356522 0 31.165217 0 44.521739-4.452173v138.017391h22.26087c62.330435 0 111.304348 48.973913 111.304347 111.304348s-48.973913 111.304348-111.304347 111.304347h-200.347826c0 53.426087-22.26087 97.947826-57.878261 129.113044-31.165217 31.165217-75.686957 48.973913-120.208696 48.973913-97.947826 0-178.086957-80.13913-178.086957-178.086957h-200.347826c-62.330435 0-111.304348-48.973913-111.304347-111.304347s48.973913-111.304348 111.304347-111.304348h22.26087v-267.130435c0-195.895652 160.278261-356.173913 356.173913-356.173913 80.13913 0 151.373913 26.713043 209.252174 66.782609z" fill="#000000" p-id="8293"></path><path d="M823.652174 400.695652c75.686957 0 133.565217-57.878261 133.565217-133.565217s-57.878261-133.565217-133.565217-133.565218-133.565217 57.878261-133.565217 133.565218 57.878261 133.565217 133.565217 133.565217z" fill="#000000" p-id="8294"></path></svg>