<?xml version="1.0" standalone="no"?><!DOCTYPE svg PUBLIC "-//W3C//DTD SVG 1.1//EN" "http://www.w3.org/Graphics/SVG/1.1/DTD/svg11.dtd"><svg t="1572593530948" class="icon" viewBox="0 0 1024 1024" version="1.1" xmlns="http://www.w3.org/2000/svg" p-id="7838" xmlns:xlink="http://www.w3.org/1999/xlink" width="200" height="200"><defs><style type="text/css"></style></defs><path d="M512 515.768c-43.008 0-77.824 34.816-77.824 74.138 0 27.443 15.565 50.422 39.28 66.724v125.296c0 19.272 15.565 39.281 39.281 39.281 19.292 0 39.301-15.565 39.301-39.28V655.891c23.716-11.857 39.281-39.3 39.281-66.723-5.181-38.544-40.776-73.4-79.319-73.4z m301.056-210.616h-45.302v-68.137a236.79 236.79 0 0 0-34.099-117.862 243.016 243.016 0 0 0-86.016-83.047 193.25 193.25 0 0 0-40.018-17.674 278.794 278.794 0 0 0-83.763-14.09c-59.29-1.495-110.449 8.888-150.487 31.867a236.81 236.81 0 0 0-120.832 206.11v63.652h-41.493c-68.935 0-122.327 54.866-122.327 125.297v463.34c0 70.43 54.129 125.296 122.327 125.296h602.01c68.956 0 122.327-54.866 122.327-125.297v-463.34c-0.102-70.43-54.231-126.115-122.327-126.115zM349.655 159.171a168.14 168.14 0 0 1 60.047-58.553c28.918-16.384 66.724-23.736 112.64-22.262a239.084 239.084 0 0 1 62.26 10.384 144.404 144.404 0 0 1 26.624 11.878 162.222 162.222 0 0 1 83.046 137.892v67.461H327.414V241.48h-0.738a160.195 160.195 0 0 1 22.979-82.31z m511.488 735.436c0 28.918-21.504 51.2-48.19 51.2H211.047c-27.443 0-48.189-22.24-48.189-51.2v-463.34c0-28.917 21.504-51.2 48.19-51.2h602.009c27.443 0 48.19 22.242 48.19 51.2z" p-id="7839" fill="#000000"></path></svg>