<?xml version="1.0" standalone="no"?><!DOCTYPE svg PUBLIC "-//W3C//DTD SVG 1.1//EN" "http://www.w3.org/Graphics/SVG/1.1/DTD/svg11.dtd"><svg t="1572593603992" class="icon" viewBox="0 0 1024 1024" version="1.1" xmlns="http://www.w3.org/2000/svg" p-id="8621" xmlns:xlink="http://www.w3.org/1999/xlink" width="200" height="200"><defs><style type="text/css"></style></defs><path d="M388.352 958.6176H95.232a28.5184 28.5184 0 0 1-28.5696-28.416V95.1296c0-15.6672 12.8-28.416 28.5696-28.416h806.2464c15.8208 0 28.6208 12.7488 28.6208 28.416V313.856a33.3824 33.3824 0 0 0 58.4704 18.4832 32.256 32.256 0 0 0 7.9872-18.4832v-218.624a94.208 94.208 0 0 0-27.648-67.2768A95.3344 95.3344 0 0 0 901.5296 0H95.232C69.9392 0 45.6704 10.0352 27.8016 27.904a94.208 94.208 0 0 0-27.5968 67.2256v833.7408a95.4368 95.4368 0 0 0 95.0272 94.464h293.12a32.6144 32.6144 0 0 0 21.2992-11.264 32.8704 32.8704 0 0 0-21.2992-53.4528z" fill="#000000" p-id="8622"></path><path d="M488.0896 344.2176a33.1776 33.1776 0 0 0-33.28-30.4128H157.7984a33.1264 33.1264 0 0 0-33.28 33.024c0 18.2784 14.8992 33.024 33.28 33.024h297.1136a33.28 33.28 0 0 0 24.4736-10.5472 32.9216 32.9216 0 0 0 8.704-25.088zM387.7376 507.392H157.696a33.1264 33.1264 0 0 0-33.28 33.024c0 18.2272 14.8992 33.024 33.28 33.024h229.9392c18.3808 0 33.28-14.7968 33.28-33.024a33.1264 33.1264 0 0 0-33.28-33.024z m474.5216 229.2224a197.5296 197.5296 0 0 0 70.3488-221.3376 199.3216 199.3216 0 0 0-189.2864-135.8848c-86.016 0-162.304 54.784-189.3376 135.8848a197.5296 197.5296 0 0 0 70.3488 221.3376 278.016 278.016 0 0 0-161.536 251.0336c0 18.2784 14.8992 33.024 33.28 33.024 18.3296 0 33.2288-14.7456 33.2288-33.024 0.6656-114.944 93.0816-208.5376 208.6912-211.4048h11.9296c115.0976 3.584 206.7456 96.9728 207.36 211.456 0 18.2272 14.8992 32.9728 33.28 32.9728 18.3296 0 33.2288-14.7456 33.2288-33.024a278.016 278.016 0 0 0-161.536-251.0336zM743.3216 445.952a132.5568 132.5568 0 0 1 132.9152 132.096 132.5568 132.5568 0 0 1-132.9152 132.1472 132.5568 132.5568 0 0 1-132.9664-132.096 132.5568 132.5568 0 0 1 132.9664-132.1472z" fill="#000000" p-id="8623"></path></svg>