<?xml version="1.0" standalone="no"?><!DOCTYPE svg PUBLIC "-//W3C//DTD SVG 1.1//EN" "http://www.w3.org/Graphics/SVG/1.1/DTD/svg11.dtd"><svg t="1566973816769" class="icon" viewBox="0 0 1088 1024" version="1.1" xmlns="http://www.w3.org/2000/svg" p-id="14574" xmlns:xlink="http://www.w3.org/1999/xlink" width="212.5" height="200"><defs><style type="text/css"></style></defs><path d="M979.2 1024H108.8a107.264 107.264 0 0 1-76.8-32.832A113.664 113.664 0 0 1 0 912V491.072a113.728 113.728 0 0 1 32-79.168 107.264 107.264 0 0 1 76.8-32.832h870.4a110.464 110.464 0 0 1 108.8 112v420.928A110.464 110.464 0 0 1 979.2 1024zM224 0h640a32 32 0 1 1 0 64h-640a32 32 0 1 1 0-64z m-128 192h896a32 32 0 0 1 0 64H96a32 32 0 0 1 0-64z" p-id="14575" fill="#000000"></path></svg>