<?xml version="1.0" standalone="no"?><!DOCTYPE svg PUBLIC "-//W3C//DTD SVG 1.1//EN" "http://www.w3.org/Graphics/SVG/1.1/DTD/svg11.dtd"><svg t="1574300289672" class="icon" viewBox="0 0 1024 1024" version="1.1" xmlns="http://www.w3.org/2000/svg" p-id="4347" xmlns:xlink="http://www.w3.org/1999/xlink" width="200" height="200"><defs><style type="text/css"></style></defs><path d="M972.8 403.911111c28.444444 5.688889 51.2 34.133333 51.2 62.577778v91.022222c0 28.444444-22.755556 56.888889-51.2 62.577778l-73.955556 11.377778c-5.688889 22.755556-17.066667 45.511111-28.444444 68.266666l39.822222 56.888889c17.066667 22.755556 17.066667 56.888889-5.688889 79.644445l-62.577777 62.577777c-11.377778 11.377778-28.444444 17.066667-45.511112 17.066667-11.377778 0-28.444444-5.688889-34.133333-11.377778l-56.888889-39.822222c-22.755556 11.377778-45.511111 22.755556-68.266666 28.444445L625.777778 967.111111c-5.688889 28.444444-34.133333 51.2-62.577778 51.2H466.488889c-28.444444 0-56.888889-22.755556-62.577778-51.2l-11.377778-73.955555c-22.755556-5.688889-45.511111-17.066667-68.266666-28.444445l-62.577778 45.511111c-11.377778 5.688889-22.755556 11.377778-34.133333 11.377778-17.066667 0-34.133333-5.688889-45.511112-17.066667l-62.577777-62.577777c-22.755556-22.755556-22.755556-56.888889-5.688889-79.644445l39.822222-56.888889c-11.377778-22.755556-22.755556-45.511111-28.444444-68.266666L51.2 625.777778c-28.444444-5.688889-51.2-34.133333-51.2-62.577778V472.177778c0-28.444444 22.755556-56.888889 51.2-62.577778L119.466667 398.222222c5.688889-22.755556 17.066667-45.511111 28.444444-68.266666l-45.511111-62.577778c-17.066667-22.755556-17.066667-56.888889 5.688889-79.644445L170.666667 125.155556c11.377778-11.377778 28.444444-17.066667 45.511111-17.066667 11.377778 0 28.444444 5.688889 34.133333 11.377778l56.888889 39.822222c22.755556-11.377778 45.511111-22.755556 68.266667-28.444445L386.844444 56.888889c5.688889-28.444444 34.133333-51.2 62.577778-51.2h91.022222c28.444444 0 56.888889 22.755556 62.577778 51.2l11.377778 68.266667c22.755556 5.688889 51.2 17.066667 73.955556 28.444444l56.888888-39.822222c11.377778-5.688889 22.755556-11.377778 34.133334-11.377778 17.066667 0 34.133333 5.688889 45.511111 17.066667l62.577778 62.577777c22.755556 22.755556 22.755556 56.888889 5.688889 79.644445l-39.822223 56.888889c11.377778 22.755556 22.755556 45.511111 28.444445 68.266666l91.022222 17.066667zM512 341.333333C415.288889 341.333333 341.333333 415.288889 341.333333 512s73.955556 170.666667 170.666667 170.666667 170.666667-73.955556 170.666667-170.666667-73.955556-170.666667-170.666667-170.666667z" p-id="4348" fill="#000000"></path></svg>