<?xml version="1.0" standalone="no"?><!DOCTYPE svg PUBLIC "-//W3C//DTD SVG 1.1//EN" "http://www.w3.org/Graphics/SVG/1.1/DTD/svg11.dtd"><svg t="1566542999923" class="icon" viewBox="0 0 1024 1024" version="1.1" xmlns="http://www.w3.org/2000/svg" p-id="2310" xmlns:xlink="http://www.w3.org/1999/xlink" width="200" height="200"><defs><style type="text/css"></style></defs><path d="M524.8 454.4H320c-12.8 0-19.2 12.8-19.2 25.6s12.8 25.6 19.2 25.6h211.2c12.8 0 25.6-12.8 25.6-25.6-6.4-12.8-19.2-25.6-32-25.6z m0 83.2H320c-12.8 0-19.2 12.8-19.2 25.6s12.8 19.2 19.2 19.2h211.2c12.8 0 25.6-12.8 25.6-19.2-6.4-19.2-19.2-25.6-32-25.6z m0 160H320c-12.8 0-19.2 12.8-19.2 25.6s12.8 19.2 19.2 19.2h211.2c12.8 0 25.6-12.8 25.6-19.2-6.4-19.2-19.2-25.6-32-25.6z m0-83.2H320c-12.8 0-19.2 12.8-19.2 25.6s12.8 25.6 19.2 25.6h211.2c12.8 0 25.6-12.8 25.6-25.6-6.4-12.8-19.2-25.6-32-25.6z m0-236.8H320c-12.8 0-25.6 6.4-25.6 19.2 0 12.8 12.8 25.6 19.2 25.6h211.2c12.8 0 25.6-12.8 25.6-25.6s-12.8-19.2-25.6-19.2z m307.2 396.8H627.2c-12.8 0-25.6 12.8-25.6 19.2 0 12.8 12.8 25.6 25.6 25.6H832c12.8 0 25.6-12.8 25.6-25.6 0-6.4-12.8-19.2-25.6-19.2z m147.2-595.2c-12.8-12.8-38.4-12.8-51.2 0l-32 32-32-32c-6.4-6.4-19.2-12.8-25.6-12.8-6.4 0-19.2 0-25.6 12.8l-32 32-32-32c-6.4-6.4-19.2-12.8-25.6-12.8-6.4 0-19.2 0-25.6 12.8l-57.6 38.4-32-32c-6.4-12.8-19.2-19.2-32-19.2s-19.2 0-25.6 12.8l-38.4 38.4-32-32c-6.4-12.8-12.8-19.2-25.6-19.2-6.4 0-19.2 0-25.6 12.8l-38.4 38.4-32-32c-6.4-12.8-19.2-19.2-32-19.2s-19.2 0-25.6 12.8l-38.4 38.4-32-32c-6.4-12.8-19.2-19.2-25.6-19.2-19.2 0-38.4 19.2-38.4 38.4v153.6l-121.6 38.4c-19.2 6.4-32 32-25.6 51.2l147.2 480c6.4 12.8 19.2 25.6 38.4 25.6h748.8c19.2 0 38.4-19.2 38.4-38.4V204.8c-6.4-6.4-6.4-19.2-12.8-25.6zM166.4 665.6l-64-204.8 64-19.2v224z m748.8 217.6H243.2V294.4c12.8 12.8 38.4 12.8 51.2 0l32-38.4 38.4 38.4c12.8 12.8 38.4 12.8 51.2 0l38.4-38.4 38.4 38.4c12.8 12.8 38.4 12.8 51.2 0L576 256l38.4 38.4c12.8 12.8 38.4 12.8 51.2 0L704 256l38.4 38.4c12.8 12.8 38.4 12.8 51.2 0l32-38.4 38.4 38.4c12.8 12.8 38.4 12.8 51.2 0v588.8zM832 377.6H627.2c-12.8 0-25.6 6.4-25.6 19.2V640c0 12.8 12.8 25.6 25.6 25.6H832c12.8 0 25.6-12.8 25.6-25.6V396.8c0-12.8-12.8-19.2-25.6-19.2z m-19.2 236.8h-166.4v-192h166.4v192z m19.2 83.2H627.2c-12.8 0-25.6 12.8-25.6 25.6s12.8 19.2 25.6 19.2H832c12.8 0 25.6-12.8 25.6-19.2 0-19.2-12.8-25.6-25.6-25.6z m-307.2 76.8H320c-12.8 0-19.2 12.8-19.2 19.2 0 12.8 12.8 25.6 19.2 25.6h211.2c12.8 0 25.6-12.8 25.6-25.6-6.4-6.4-19.2-19.2-32-19.2z" fill="" p-id="2311"></path></svg>