<?xml version="1.0" standalone="no"?><!DOCTYPE svg PUBLIC "-//W3C//DTD SVG 1.1//EN" "http://www.w3.org/Graphics/SVG/1.1/DTD/svg11.dtd"><svg t="1569204607842" class="icon" viewBox="0 0 1040 1024" version="1.1" xmlns="http://www.w3.org/2000/svg" p-id="2024" xmlns:xlink="http://www.w3.org/1999/xlink" width="203.125" height="200"><defs><style type="text/css"></style></defs><path d="M909.981177 427.567006c0.217964-4.789073 0.344854-9.601682 0.344854-14.443967 0-172.389232-139.768277-312.154439-312.183092-312.154439-98.784864 0-186.838316 45.89426-244.042155 117.504204-12.847609-2.609431-26.143427-3.982708-39.760562-3.982708-109.724007 0-198.662619 88.936565-198.662619 198.632943 0 18.943444 2.65241 37.266765 7.602142 54.621015C51.246151 505.804904 2.156106 581.453838 2.156106 668.547429c0 125.43585 101.631702 227.070622 227.042993 227.070622 2.334161 0 4.65809-0.048095 6.974855-0.11768l524.406564 0 0-0.014326c2.606361 0.078795 5.218862 0.132006 7.843642 0.132006 141.068899 0 255.423367-114.327862 255.423367-255.422344C1023.848551 551.48734 978.623533 473.355865 909.981177 427.567006zM569.762565 725.364459l-56.760748 0L513.001817 555.883463 343.190293 555.883463l198.192921-227.871871L739.54646 555.883463 569.762565 555.883463 569.762565 725.364459z" p-id="2025" fill="#000000"></path></svg>